<?xml version="1.0" encoding="UTF-8"?>
<svg id="Layer_2" data-name="Layer 2" xmlns="http://www.w3.org/2000/svg" viewBox="0 0 197.39 198.01">
  <defs>
    <style>
      .cls-1 {
        fill: #fff;
      }

      .cls-2 {
        fill: #89939e;
        font-family: CherryCreamSoda-Regular, 'Cherry Cream Soda';
        font-size: 12.96px;
      }
    </style>
  </defs>
  <g id="Layer_1-2" data-name="Layer 1">
    <g>
      <path class="cls-1" d="m.06,99.01C.06,67.3.09,35.59,0,3.88,0,.97.69,0,3.76,0c63.35.09,126.69.09,190.04,0,2.96,0,3.58.95,3.58,3.72-.07,63.52-.08,127.04.01,190.57,0,3.12-1.03,3.72-3.9,3.71-63.24-.07-126.48-.08-189.73,0-3.06,0-3.78-.96-3.77-3.87.09-31.71.06-63.42.06-95.13Zm193.94.31c0-30.57,0-61.14,0-91.7,0-4.27-.02-4.28-4.24-4.28-60.65,0-121.3,0-181.94,0-4.26,0-4.29,0-4.29,4.26,0,60.93,0,121.86,0,182.79,0,4.27.02,4.28,4.28,4.28,60.65,0,121.3,0,181.94,0,4.24,0,4.25-.01,4.26-4.27,0-30.36,0-60.72,0-91.08Z"/>
      <path class="cls-1" d="m13,98.99c0-27.47.05-54.93-.07-82.4-.01-3.18.9-3.99,4.01-3.98,54.55.09,109.09.08,163.64,0,2.92,0,3.89.74,3.89,3.79-.09,55.04-.08,110.07,0,165.11,0,2.96-.87,3.9-3.85,3.89-54.65-.07-109.3-.07-163.95-.01-2.79,0-3.72-.79-3.71-3.7.1-27.57.06-55.14.06-82.71Zm122.72-19.45c.85-.47,1.74-.98,2.64-1.45,9.14-4.79,18.31-9.53,27.41-14.41,1.14-.61,2.61-1.81,2.76-2.89,1.42-10.7,2.63-21.44,3.8-32.17.39-3.62.06-3.98-3.6-3.86-7.32.23-14.64.68-21.96.95-13.1.47-26.2.97-39.3,1.25-3.04.06-4.23,1.04-4.36,4.06-.25,5.87-.83,11.72-1.15,17.59-.16,2.94-.03,5.9-.03,9.23h25.28c.1.28.2.55.3.83-8.98,6.22-17.97,12.41-26.91,18.68-.95.66-2.19,1.65-2.32,2.62-1.14,8.14-2.06,16.3-3.09,24.9,1.46,0,2.56.11,3.64-.02,4.09-.48,8.17-1.34,12.27-1.47,5.54-.17,11.2-.4,16.63.49,8.26,1.35,11.66,10.08,6.58,16.14-1.81,2.16-4.2,4.03-6.67,5.38-5.93,3.23-9.35,1.76-11.56-4.59-.35-.06-.75-.21-1.15-.19-9.17.43-18.34.83-27.5,1.4-.85.05-2.1,1.07-2.36,1.89-2.06,6.67-1.9,13.26,1.82,19.37,5.07,8.33,13.28,11.11,22.34,11.73,22.21,1.51,45.82-13.44,54.26-34.07,6.06-14.81,1.8-27.52-12.24-35.1-4.83-2.61-10.22-4.17-15.51-6.26Zm-33.83-53.99c-9.28.52-17.91.94-26.53,1.58-.75.06-1.8,1.5-2.01,2.45-3.99,18.4-7.88,36.81-11.78,55.23-2.28,10.77-4.51,21.54-6.85,32.29-.17.8-1.1,1.43-1.68,2.14-.26-.87-.79-1.77-.73-2.62.24-3.28.72-6.54,1.02-9.81.69-7.48,1.28-14.97,2.02-22.44.92-9.31,1.98-18.61,2.92-27.93.92-9.11,1.71-18.23,2.69-27.34.42-3.95.32-4.15-3.78-3.89-6.48.42-12.96.83-19.45,1.11-4.25.18-4.31.07-4.47,4.48-.33,9.28-.51,18.57-.92,27.84-.33,7.52-.8,15.03-1.37,22.54-.9,11.92-1.92,23.82-2.93,35.73-.71,8.31-1.51,16.62-2.23,24.93-.36,4.15-.62,8.3-.93,12.57,1.22,0,1.84.08,2.44-.01,11.5-1.76,23-3.45,34.48-5.33,8.83-1.45,8.64-1.6,10.8-10.21,7.98-31.79,16.05-63.56,24.16-95.31,1.49-5.85,3.29-11.61,5.12-18Z"/>
      <text class="cls-2" transform="translate(24.89 176.21)"><tspan x="0" y="0">Cause It Seems Fun</tspan></text>
    </g>
  </g>
</svg>