<?xml version="1.0" encoding="UTF-8"?>
<svg id="Layer_2" data-name="Layer 2" xmlns="http://www.w3.org/2000/svg" viewBox="0 0 185.76 169.44">
  <defs>
    <style>
      .cls-1 {
        fill: #fe7833;
      }
    </style>
  </defs>
  <g id="Layer_1-2" data-name="Layer 1">
    <g>
      <path class="cls-1" d="m92.5,169.44c-29.15,0-58.3,0-87.45,0-5.02,0-5.05-.02-5.05-4.87C0,111.39,0,58.22,0,5.04,0,.02.03,0,4.88,0c58.67,0,117.34,0,176.01,0,4.84,0,4.86.02,4.86,5.05,0,53.05,0,106.11,0,159.16,0,5.22-.02,5.22-5.44,5.22-29.27,0-58.55,0-87.82,0Zm.48-5.03c27.79,0,55.58-.05,83.37.06,3.24.01,4.55-.58,4.54-4.26-.13-50.33-.11-100.67-.02-151,0-3.23-.8-4.27-4.16-4.26-55.83.1-111.66.1-167.48,0-3.55,0-4.34,1.1-4.34,4.46.1,50.21.1,100.42,0,150.62,0,3.38.81,4.47,4.35,4.46,27.91-.14,55.83-.08,83.74-.08Z"/>
      <path class="cls-1" d="m92.51,157.53c-25.3,0-50.6-.08-75.9.08-3.75.02-4.84-.95-4.83-4.77.13-45.48.12-90.96,0-136.44,0-3.64,1.08-4.58,4.64-4.57,50.97.11,101.95.11,152.92,0,3.57,0,4.65.93,4.64,4.57-.12,45.48-.12,90.96,0,136.44.01,3.82-1.09,4.79-4.83,4.77-25.55-.16-51.1-.08-76.65-.08Zm28.84-103.87c.12.29.25.58.37.88-1.12.92-2.19,1.9-3.36,2.74-7.5,5.33-15.05,10.6-22.53,15.98-1.04.74-2.34,1.84-2.51,2.94-.96,6.12-1.62,12.3-2.37,18.45-.33,2.69.59,3.2,3.41,2.96,8.25-.69,16.58-1.39,24.83-.99,6.67.32,10.5,5.66,9.89,11.7-.59,5.87-9.52,12.89-15.28,11.64-1.69-.37-3.78-1.87-4.4-3.38-.88-2.13-2.01-2.53-3.91-2.41-7.44.5-14.9.92-22.33,1.53-.88.07-2.25,1.01-2.4,1.76-.51,2.53-.97,5.17-.76,7.72,1.03,12.58,10.61,18.19,21.18,19.08,20.18,1.7,35.3-7.26,46.96-22.93,3.65-4.91,6.15-10.55,6.54-16.84.73-11.75-5.05-20.19-17.01-24.69-3.99-1.5-8.12-2.65-13.01-4.22,1.97-1.11,3.21-1.84,4.49-2.51,8.35-4.42,16.68-8.9,25.1-13.19,2.3-1.17,3.22-2.77,3.46-5.23.59-6.18,1.38-12.34,2.04-18.52.39-3.66.67-7.32,1.03-11.28-1.11,0-1.71-.01-2.3,0-12.94.37-25.89.72-38.83,1.13-5.72.18-11.44.55-17.16.72-2.78.09-4.42,1.13-4.58,4.11-.41,7.52-.9,15.05-1.37,22.84h24.85Zm-26.93-27.74c-1.92,0-3.13-.05-4.34,0-5.1.24-10.21.89-15.28.65-3.82-.19-4.87,1.45-5.55,4.7-5.4,26.08-10.92,52.14-16.37,78.21-.36,1.73-.33,3.98-2.75,3.37-.79-.2-1.5-2.73-1.4-4.13.52-6.93,1.32-13.85,2.02-20.77.93-9.15,1.88-18.29,2.8-27.44,1.06-10.51,2.05-21.02,3.16-31.52.31-2.91-.56-4.04-3.67-3.78-5.45.45-10.93.72-16.4.68-3.03-.02-4.07.8-4.1,3.98-.12,10.45-.4,20.91-.99,31.34-.69,12.28-1.72,24.54-2.71,36.8-.84,10.39-1.87,20.77-2.77,31.15-.41,4.78-.7,9.57-1.09,14.98,12.82-1.96,25.02-3.93,37.26-5.63,2.68-.37,3.7-1.35,4.35-3.95,8.1-32.29,16.32-64.54,24.55-96.79.96-3.78,2.08-7.53,3.29-11.85Z"/>
    </g>
  </g>
</svg>